<?xml version="1.0" encoding="iso-8859-1"?>
<!-- Generator: Adobe Illustrator 18.1.1, SVG Export Plug-In . SVG Version: 6.00 Build 0)  -->
<svg version="1.1" id="Capa_1" xmlns="http://www.w3.org/2000/svg" xmlns:xlink="http://www.w3.org/1999/xlink" x="0px" y="0px"
	 viewBox="0 0 18.516 18.516" style="enable-background:new 0 0 18.516 18.516;" xml:space="preserve">
<g>
	<path style="fill:#FFFFFF;" d="M17.213,16.99v-0.354h-1.176c0.006-0.053,0.006-0.135-0.034-0.188
		c-0.063-0.082-0.123-0.121-0.123-0.121s-0.112-1.765-0.173-2.332c-0.061-0.568-0.08-2.33-0.08-2.33s0.588-0.056,0.64-0.144
		c0.05-0.092-0.427-2.85-0.427-2.85s0.183-0.346,0.242-0.367c0.062-0.02,0.254,0.123,0.345,0.062
		c0.092-0.062,0.416-0.599,0.62-1.113c0.203-0.519,0.183-0.689,0.154-0.762c-0.033-0.07-0.051-0.183-0.234-0.406
		c-0.182-0.224-0.477-0.658-0.62-0.771c-0.142-0.108-0.212-0.303-0.272-0.416c-0.062-0.11-0.265-0.403-0.498-0.434
		c-0.231-0.031-0.861-0.092-0.994-0.172c-0.131-0.08-0.293-0.234-0.293-0.234c-0.071-0.031-0.071-0.406-0.01-0.406
		c0.06,0,0.133-0.161,0.162-0.293c0.03-0.133,0.03-0.202-0.011-0.221c-0.04-0.022-0.04-0.022-0.04-0.022s0.061-0.429-0.182-0.73
		c-0.244-0.305-0.672-0.275-0.852-0.254c-0.184,0.02-0.457,0.174-0.57,0.438c-0.111,0.263-0.02,0.689-0.02,0.689
		S12.645,3.3,12.726,3.491c0.081,0.192,0.143,0.202,0.143,0.202s0.082,0.191,0.121,0.287c0.041,0.093,0.071,0.181,0.071,0.181
		s-0.1-0.021-0.173,0.061c-0.07,0.082-0.191,0.244-0.191,0.244s-0.406,0.182-0.66,0.223c-0.252,0.039-0.465,0.174-0.598,0.525
		c-0.132,0.356-0.242,1.047-0.263,1.402c-0.022,0.354-0.123,1.032-0.173,1.541c-0.051,0.508-0.092,1.59-0.092,1.59l0.061,0.061
		c0,0,0,0.469,0.111,0.631c0.113,0.16,0.265,0.201,0.265,0.201s0.11,0.051,0.183,0.051c0.069,0,0.101,0,0.101,0l-0.021,1.107
		c0,0-0.06,0.08,0.193,0.1c0.252,0.021,0.375,0.021,0.375,0.021s0.123,1.258,0.152,1.836c0.029,0.576,0.121,1.52,0.121,1.805
		c0,0.283,0.011,0.738,0.011,0.738s-0.255,0.123-0.293,0.215c-0.021,0.043-0.025,0.09-0.025,0.125h-1.192v0.354H7.734v-0.509H7.013
		c-0.028-0.047-0.092-0.135-0.208-0.192c-0.159-0.078-0.418-0.222-0.418-0.222l-0.103-3.245l0.761-0.021l-0.14-4.569
		c0,0,0.981-0.961,1.041-1.422c0.059-0.459-1.002-2.004-1.002-2.004S6.825,4.55,6.663,4.41c-0.159-0.14-0.9-0.259-1.061-0.398
		C5.443,3.869,5.384,3.789,5.384,3.789l-0.12-0.058c0,0,0.06-0.442,0.12-0.461c0.06-0.021,0.14-0.021,0.18-0.182
		c0.039-0.16,0.039-0.342,0.039-0.342s0.028-0.031-0.039-0.054c-0.067-0.02-0.067-0.02-0.067-0.02S5.652,2.375,5.463,2.06
		c-0.186-0.312-0.485-0.441-0.88-0.415c-0.395,0.03-0.541,0.254-0.6,0.396c-0.061,0.14-0.089,0.301-0.061,0.44
		c0.027,0.141,0.065,0.246,0.054,0.341C3.961,2.916,3.961,3.11,3.994,3.27c0.033,0.158,0.08,0.267,0.08,0.267L3.961,3.543
		L3.714,3.815c0,0-0.058-0.153-0.387-0.258c-0.326-0.106-0.575-0.12-0.714-0.226c-0.14-0.107-0.487-0.443-0.628-0.656
		c-0.14-0.213-0.761-1.289-0.761-1.289L1.096,1.274c0,0,0.073-0.295-0.086-0.514C0.848,0.539,0.783,0.185,0.738,0.099
		C0.689,0.011,0.637,0.002,0.57,0.033C0.503,0.063,0.609,0.422,0.63,0.49c0.014,0.055,0.025,0.071,0.03,0.079
		C0.63,0.537,0.425,0.317,0.364,0.205c-0.07-0.121-0.156-0.233-0.226-0.199C0.061,0.037,0.015,0.052,0.041,0.131
		c0.027,0.084,0.113,0.289,0.14,0.377c0.026,0.086,0.021,0.199,0.081,0.398c0.06,0.2,0.202,0.514,0.202,0.514
		S0.382,1.615,0.403,1.819c0.021,0.207,0.1,0.314,0.1,0.314s0.294,0.754,0.488,1.162c0.19,0.41,0.539,0.955,0.855,1.268
		C2.16,4.877,2.514,5.051,2.514,5.051s-0.31,1.475-0.462,2.152c-0.153,0.674-0.566,3.018-0.655,3.484
		c-0.086,0.47-0.227,1.168-0.227,1.168s0.047,0.179,0.395,0.254c0.347,0.074,0.64,0.144,0.64,0.144l0.021,0.205L2.9,12.685
		l0.006,3.426c0.021,0.025-0.14,0.074-0.18,0.146c-0.029,0.061-0.025,0.176-0.022,0.229H1.778v0.509H0.576v1.521h17.906V16.99
		H17.213z M3.394,3.806C3.272,3.752,2.836,3.674,2.638,3.604C2.437,3.539,2.204,3.051,2.204,3.051S2.37,3.276,2.615,3.44
		c0.245,0.166,0.422,0.146,0.68,0.189c0.254,0.045,0.354,0.277,0.354,0.277S3.516,3.862,3.394,3.806z M4.03,2.181
		c0,0,0.134-0.32,0.4-0.396c0.268-0.082,0.6-0.037,0.791,0.131C5.409,2.082,5.443,2.283,5.443,2.36c0,0.076,0,0.156,0,0.156
		s0.034-0.368-0.311-0.523C4.784,1.838,4.463,1.703,4.03,2.181z M5.324,16.482h-1.31c0.009-0.041,0.023-0.112,0.014-0.141
		c-0.014-0.039,0.068-0.047,0.068-0.047l0.019-0.066c0,0,0.174-2.096,0.201-2.602c0.026-0.512,0.067-0.816,0.067-0.816l0.522,0.025
		c0,0,0.099,1.344,0.145,1.812c0.047,0.465,0.181,1.693,0.181,1.693l0.094,0.014L5.324,16.482L5.324,16.482z M5.476,4.008
		c0,0,0.122,0.135,0.422,0.211c0.298,0.078,0.6,0.189,0.6,0.189s-0.111,0.043-0.5-0.046C5.609,4.272,5.476,4.197,5.476,4.008z
		 M12.66,4.974c0,0-0.223-0.154-0.276-0.121C12.328,4.888,12.284,5,12.284,5l-0.457-0.14c0,0,0.168-0.073,0.356-0.11
		c0.19-0.029,0.546-0.188,0.546-0.188s-0.078,0.188-0.078,0.244C12.651,4.86,12.66,4.974,12.66,4.974z M13.328,2.34
		c-0.1,0.033-0.457,0.32-0.457,0.32s0.067-0.312,0.414-0.39c0.344-0.076,0.533-0.043,0.721,0.09
		c0.188,0.132,0.236,0.412,0.236,0.412s-0.27-0.391-0.457-0.434C13.595,2.293,13.429,2.304,13.328,2.34z M13.648,16.637
		c0.005-0.033,0.007-0.082,0.001-0.135c-0.01-0.113,0.021-0.195,0.021-0.195s0.039-0.77,0.072-1.447
		c0.027-0.68,0.02-3.002,0.02-3.002l0.15-0.012c0,0,0.386,1.988,0.437,2.598c0.044,0.548,0.295,1.923,0.345,2.193H13.648z
		 M15.155,4.64c-0.258-0.01-0.625-0.065-0.658-0.311c0,0,0.257,0.145,0.492,0.168c0.23,0.021,0.6,0.076,0.6,0.076
		S15.409,4.651,15.155,4.64z"/>
</g>
<g>
</g>
<g>
</g>
<g>
</g>
<g>
</g>
<g>
</g>
<g>
</g>
<g>
</g>
<g>
</g>
<g>
</g>
<g>
</g>
<g>
</g>
<g>
</g>
<g>
</g>
<g>
</g>
<g>
</g>
</svg>
