<?xml version="1.0" encoding="iso-8859-1"?>
<!-- Generator: Adobe Illustrator 18.1.1, SVG Export Plug-In . SVG Version: 6.00 Build 0)  -->
<svg version="1.1" id="Capa_1" xmlns="http://www.w3.org/2000/svg" xmlns:xlink="http://www.w3.org/1999/xlink" x="0px" y="0px"
	 viewBox="0 0 19.5 19.5" style="enable-background:new 0 0 19.5 19.5;" xml:space="preserve">
<g>
	<path style="fill:#5E7FD9;" d="M16.741,14.77l-0.006-0.062l-1.381-2.767l-0.477-1.836l-0.905-0.541V2.827l0.887-0.688V1.251
		l-0.93-0.518L11.9,1.317l-0.993,1.078l0.323,0.217l2.073-0.713l-0.844,1.078v6.438L11.94,9.608l-0.13,0.453l0.152,0.239
		l-0.075,0.519l0.216,0.172l-0.055,0.453l0.195,0.151l-0.024,0.562l0.282,0.281v1.963c-0.448-0.022-0.92-0.041-1.416-0.056
		l-0.162-0.915l0,0c0.082-0.175,0.16-0.41,0.179-0.697c0.03-0.447-0.006-0.812-0.033-1.008l0.159-0.259l0.023-0.346
		c0,0-0.195-0.238-0.369-0.303c-0.171-0.063-0.301-0.084-0.301-0.084V4.922l-0.149-0.15l0.235-0.605V3.11c0,0-0.269-0.758-0.7-1.254
		c0,0-0.573,0.762-0.682,1.301v1.029l0.216,0.605L9.352,4.946v5.42c0,0-0.39,0.218-0.52,0.324c-0.129,0.106-0.282,0.367-0.282,0.887
		c0,0.517,0.347,1.531,0.368,1.748c0.022,0.216,0.281,0.519,0.281,0.519l-0.012,0.47c-0.848-0.004-1.635,0.01-2.362,0.035V12.7
		c0,0,0.346-0.217,0.453-0.432c0.108-0.218,0.021-1.275,0.108-1.318c0.086-0.043,0.063-0.82,0.063-0.82s0.216-0.433,0.023-0.626
		C7.277,9.307,6.953,9.329,6.953,9.329V3.085L7.957,3.28l0.379-0.303V2.116L7.774,1.381c0,0-0.692-0.258-0.758-0.258
		c-0.063,0-0.3-0.24-0.626-0.283C6.068,0.797,5.852,0.928,5.852,0.928L5.119,0.797l-0.521,0.41v1.447l1.124,0.217L5.701,9.717
		c0,0-0.844,0.15-1.016,0.451c-0.172,0.305-0.453,1.623-0.863,2.312c-0.352,0.594-1.02,1.848-1.205,2.199
		C0.857,14.909,0,15.161,0,15.161v2.332h0.365v1.273h18.596v-1.273H19.5v-2.225C19.5,15.268,18.609,15.016,16.741,14.77z
		 M7.344,9.672c0.066,0.196-0.092,0.461-0.092,0.461s0.014,0.473-0.053,0.631c-0.067,0.157-0.038,1.041-0.067,1.227
		c-0.024,0.185-0.128,0.275-0.128,0.275s-0.094-1.475-0.067-1.951c0.027-0.473-0.251-0.789-0.251-0.789
		C6.817,9.489,7.279,9.473,7.344,9.672z M10.653,10.862c0,0,0.291,0.113,0.385,0.19c0.094,0.078,0.127,0.158,0.127,0.158
		s-0.179-0.016-0.291-0.071C10.76,11.084,10.653,10.862,10.653,10.862z M15.702,14.511l-2.057-4.778l1.003,0.521l0.372,1.668
		l1.441,2.77L15.702,14.511z"/>
</g>
<g>
</g>
<g>
</g>
<g>
</g>
<g>
</g>
<g>
</g>
<g>
</g>
<g>
</g>
<g>
</g>
<g>
</g>
<g>
</g>
<g>
</g>
<g>
</g>
<g>
</g>
<g>
</g>
<g>
</g>
</svg>
