<?xml version="1.0" encoding="iso-8859-1"?>
<!-- Generator: Adobe Illustrator 16.0.0, SVG Export Plug-In . SVG Version: 6.00 Build 0)  -->
<!DOCTYPE svg PUBLIC "-//W3C//DTD SVG 1.1//EN" "http://www.w3.org/Graphics/SVG/1.1/DTD/svg11.dtd">
<svg version="1.1" id="Capa_1" xmlns="http://www.w3.org/2000/svg" xmlns:xlink="http://www.w3.org/1999/xlink" x="0px" y="0px"
	 viewBox="0 0 70.083 70.083" style="enable-background:new 0 0 70.083 70.083;"
	 xml:space="preserve">
<g>
	<path d="M67.978,51.795v-6.047h-1.585c-3.979-3.72-14.616-13.6-15.369-14.127c-0.934-0.65-2.285-1.205-2.368-1.772
		c-0.082-0.551,0-3.433-0.174-4.08c0,0,1.071-0.335,1.143-1.393c0.086-1.078-0.51-1.492-0.51-1.492s0.25-1.252-0.339-1.855
		c-0.589-0.609-1.263-0.376-1.485-0.561c-0.216-0.192-0.667-0.192-0.667,0c0,0.185-0.514,1.116-0.514,1.116s-0.719,0.51-0.596,0.643
		c0.131,0.144,0.131,0.288,0.131,0.288s-0.548,0.924-0.172,1.109c0.38,0.191,0.637,0.288,0.637,0.288l-0.048,1.95l-8.177-3.093
		c-0.014-0.096-0.027-0.171-0.014-0.202c0.03-0.099,0.185-0.205,0.03-0.452c-0.154-0.243-0.382-0.517-0.351-0.63
		c0.032-0.103-0.409-0.205-0.409-0.205s0.218-0.633,0.441-0.664c0.221-0.034,0.543-0.273,0.543-0.273s0.403-1.294,0-2.758
		c-0.409-1.451-1.85-2.485-2.993-2.546c-0.041-0.007-0.07-0.014-0.098-0.007c-0.03-0.007-0.06,0-0.094,0.007
		c-1.133,0.062-2.574,1.092-2.982,2.543c-0.407,1.464,0,2.758,0,2.758s0.321,0.24,0.539,0.274c0.221,0.034,0.448,0.664,0.448,0.664
		s-0.448,0.103-0.409,0.208c0.024,0.11-0.193,0.384-0.354,0.63c-0.161,0.25,0,0.353,0.031,0.452c0.007,0.027,0.007,0.103-0.01,0.199
		l-8.186,3.094l-0.038-1.951c0,0,0.249-0.096,0.633-0.287c0.381-0.188-0.175-1.109-0.175-1.109s0-0.144,0.13-0.288
		c0.125-0.13-0.589-0.643-0.589-0.643s-0.515-0.935-0.515-1.116c0-0.191-0.463-0.191-0.67,0c-0.214,0.185-0.89-0.048-1.485,0.561
		c-0.595,0.603-0.34,1.855-0.34,1.855s-0.596,0.414-0.512,1.492c0.089,1.061,1.146,1.393,1.146,1.393
		c-0.175,0.647-0.081,3.528-0.175,4.079c-0.08,0.572-1.434,1.126-2.37,1.773C18.303,32.145,7.684,42.034,3.697,45.744H2.113v6.051H0
		v3.261h21.775v-3.261h-0.787c0.007-0.678,0.027-1.567,0.027-2.464c0-1.862,1.434-5.571,2.706-10.137
		c1.271-4.559,2.498-10.599,2.498-10.599s0.512,0.366,2.712-0.28c0.806-0.233,1.608-0.883,2.293-1.602
		c0.536,0.055,1.227,0.014,1.947-0.308c1.708-0.777,1.749-3.525,1.749-3.525l0.127-0.233l0.13,0.233c0,0,0.031,2.748,1.752,3.525
		c0.719,0.322,1.388,0.363,1.938,0.308c0.677,0.718,1.488,1.369,2.293,1.602c2.203,0.65,2.706,0.28,2.706,0.28
		s1.229,6.044,2.499,10.599c1.266,4.565,2.699,8.261,2.699,10.137c0,0.896,0.014,1.786,0.038,2.464h-0.798v3.261h21.779v-3.261
		H67.978z M19.782,35.337L11.988,45.56l-1.271,0.045L19.782,35.337z M59.368,45.604l-1.26-0.045l-7.803-10.222L59.368,45.604z"/>
</g>
<g>
</g>
<g>
</g>
<g>
</g>
<g>
</g>
<g>
</g>
<g>
</g>
<g>
</g>
<g>
</g>
<g>
</g>
<g>
</g>
<g>
</g>
<g>
</g>
<g>
</g>
<g>
</g>
<g>
</g>
</svg>
